<svg width="279" height="126" viewBox="0 0 279 126" fill="none" xmlns="http://www.w3.org/2000/svg">
<path fill-rule="evenodd" clip-rule="evenodd" d="M241.532 112.597C263.151 107.999 278.712 95.1447 278.712 80.0064C278.712 61.0084 254.204 45.6076 223.973 45.6076C219.828 45.6076 215.791 45.897 211.91 46.4455C203.901 19.9958 166.912 0 122.49 0C72.2179 0 31.4639 25.6104 31.4639 57.2025C31.4639 58.8301 31.5721 60.4418 31.7841 62.0349C13.8652 65.1574 0.711761 75.4816 0.711761 87.7364C0.711761 100.348 14.642 110.915 33.3606 113.692C53.6853 121.044 92.0462 126 136.021 126C182.146 126 222.094 120.547 241.532 112.597Z" fill="#CCDDDC"/>
</svg>
