<svg width="278" height="126" viewBox="0 0 278 126" fill="none" xmlns="http://www.w3.org/2000/svg">
<g style="mix-blend-mode:lighten">
<path fill-rule="evenodd" clip-rule="evenodd" d="M240.82 112.597C262.439 107.999 278 95.1447 278 80.0064C278 61.0084 253.493 45.6076 223.261 45.6076C219.116 45.6076 215.079 45.897 211.198 46.4455C203.19 19.9958 166.2 0 121.779 0C71.5062 0 30.7522 25.6104 30.7522 57.2025C30.7522 58.8301 30.8604 60.4418 31.0724 62.0349C13.1535 65.1574 9.15527e-05 75.4816 9.15527e-05 87.7364C9.15527e-05 100.348 13.9304 110.915 32.649 113.692C52.9737 121.044 91.3346 126 135.31 126C181.434 126 221.383 120.547 240.82 112.597Z" fill="#CCDDDC"/>
</g>
</svg>
