<svg width="1440" height="903" viewBox="0 0 1440 903" fill="none" xmlns="http://www.w3.org/2000/svg">
<path d="M769.023 691.561C718.907 702.278 672.873 712.226 630.511 721.381C503.037 748.93 408.82 769.291 336.703 781.784C240.604 798.432 183.863 801.083 140.036 788.216C96.2274 775.353 65.2391 746.963 20.6952 701.246C15.0158 695.417 9.11721 689.308 2.94467 682.915C-39.2786 639.184 -94.3183 582.179 -179.657 510.842C-228.42 470.08 -245.513 423.002 -237.441 372.899C-229.363 322.761 -196.076 269.553 -143.964 216.617C-39.7453 110.748 139.609 6.12457 342.346 -70.4892C545.081 -147.102 771.134 -195.681 968.726 -189.508C1166.32 -183.335 1335.34 -122.42 1424.22 19.8428C1490.62 126.109 1557.29 192.466 1611.96 241.242C1623.94 251.927 1635.32 261.758 1646 270.978C1659.71 282.816 1672.26 293.647 1683.38 303.984C1703.16 322.359 1718.36 339.095 1727.5 356.993C1745.76 392.727 1739.96 433.267 1697.53 501.047C1655.1 568.824 1576.11 663.704 1448.27 808.041C1383.14 881.573 1333.84 905.432 1290.2 901.501C1268.36 899.534 1247.87 890.609 1227.44 877.356C1207.01 864.101 1186.67 846.541 1165.14 827.339C1161.93 824.471 1158.68 821.567 1155.41 818.636C1114.88 782.326 1069.65 741.805 1011.69 714.206C949.033 684.366 871.527 669.641 769.023 691.561Z" fill="url(#paint0_linear)" stroke="black"/>
<defs>
<linearGradient id="paint0_linear" x1="1558.5" y1="865.5" x2="315.879" y2="1563.53" gradientUnits="userSpaceOnUse">
<stop stop-color="#B4C5CB"/>
<stop offset="1" stop-color="#10124A"/>
</linearGradient>
</defs>
</svg>
