<svg width="167" height="66" viewBox="0 0 167 66" fill="none" xmlns="http://www.w3.org/2000/svg">
<g style="mix-blend-mode:lighten">
<path fill-rule="evenodd" clip-rule="evenodd" d="M144.665 58.9796C157.652 56.5711 167 49.8378 167 41.9082C167 31.9569 152.278 23.8897 134.117 23.8897C131.628 23.8897 129.202 24.0414 126.871 24.3287C122.06 10.474 99.8397 0 73.1549 0C42.9551 0 18.4734 13.415 18.4734 29.9632C18.4734 30.8158 18.5384 31.66 18.6658 32.4944C7.90157 34.1301 6.10352e-05 39.538 6.10352e-05 45.9571C6.10352e-05 52.5631 8.36813 58.0981 19.6127 59.553C31.8221 63.4037 54.8663 66 81.2831 66C108.991 66 132.988 63.1438 144.665 58.9796Z" fill="#CCDDDC"/>
</g>
</svg>
