<svg width="1440" height="1024" viewBox="0 0 1440 1024" fill="none" xmlns="http://www.w3.org/2000/svg">
<path opacity="0.111111" d="M709.645 630.335C662.293 641.768 618.801 652.367 578.78 662.121C458.356 691.47 369.355 713.161 301.179 726.844C210.322 745.08 156.615 749.054 114.908 738.069C73.2313 727.092 43.418 701.149 0.406848 659.141C-5.07591 653.786 -10.7715 648.172 -16.7318 642.297C-57.5049 602.108 -110.663 549.71 -192.797 484.572C-239.652 447.413 -256.614 403.489 -249.807 356.048C-242.994 308.555 -212.35 257.48 -163.829 206.144C-66.7942 103.48 101.511 0.00746866 292.475 -77.6362C483.435 -155.278 696.962 -207.056 884.401 -206.399C1071.85 -205.742 1233.03 -152.659 1319.63 -20.7602C1384.38 77.8738 1448.75 138.806 1501.42 183.445C1512.96 193.229 1523.93 202.216 1534.21 210.643C1547.4 221.458 1559.47 231.35 1570.19 240.817C1589.25 257.645 1603.91 273.026 1612.86 289.646C1630.72 322.799 1625.95 361.141 1586.85 426.24C1547.75 491.333 1474.45 582.98 1355.62 722.623C1295.09 793.754 1248.81 817.49 1207.48 814.928C1186.81 813.646 1167.27 805.779 1147.7 793.814C1128.12 781.845 1108.56 765.809 1087.82 748.239C1084.72 745.615 1081.6 742.957 1078.44 740.274C1039.4 707.051 995.801 669.946 940.34 645.384C880.357 618.82 806.544 606.94 709.645 630.335Z" fill="url(#paint0_linear)" stroke="url(#paint1_linear)" stroke-width="1.44444"/>
<path opacity="0.222222" d="M717.914 625.468C670.053 636.124 626.092 646.01 585.64 655.107C463.925 682.48 373.976 702.709 305.123 715.251C213.356 731.968 159.278 734.984 117.542 723.18C75.844 711.387 46.31 684.762 3.71682 641.667C-1.7116 636.174 -7.35007 630.417 -13.2507 624.392C-53.6179 583.172 -106.255 529.424 -187.846 462.319C-234.329 424.088 -250.634 379.611 -242.995 332.022C-235.345 284.366 -203.668 233.514 -153.974 182.704C-54.5965 81.093 116.536 -20.0521 310.056 -94.7793C503.571 -169.504 719.353 -217.766 907.982 -213.702C1096.62 -209.637 1257.88 -153.259 1342.77 -18.9333C1406.31 81.6085 1470.09 144.163 1522.37 190.089C1533.83 200.159 1544.72 209.411 1554.93 218.085C1568.02 229.214 1580 239.39 1590.63 249.12C1609.52 266.411 1624 282.147 1632.71 299.014C1650.08 332.634 1644.68 371.088 1604.23 435.93C1563.79 500.765 1488.47 591.727 1366.5 730.219C1304.38 800.754 1257.45 823.745 1216.02 820.424C1195.28 818.762 1175.79 810.505 1156.31 798.111C1136.82 785.711 1117.41 769.216 1096.83 751.143C1093.75 748.443 1090.65 745.708 1087.52 742.947C1048.79 708.78 1005.49 670.593 950.045 644.832C890.061 616.964 815.901 603.653 717.914 625.468Z" fill="url(#paint2_linear)" stroke="url(#paint3_linear)" stroke-width="1.88889"/>
<path opacity="0.333333" d="M726.265 620.859C677.907 630.723 633.489 639.883 592.617 648.312C469.645 673.671 378.772 692.412 309.262 703.794C216.609 718.966 162.178 721.011 120.428 708.384C78.7255 695.771 49.4854 668.467 7.33514 624.286C1.96412 618.656 -3.61403 612.756 -9.4517 606.58C-49.3893 564.333 -101.473 509.237 -182.479 440.162C-228.567 400.863 -244.2 355.841 -235.721 308.119C-227.228 260.315 -194.516 209.708 -143.653 159.449C-41.9393 58.942 131.99 -39.8087 328.023 -111.554C524.048 -183.296 742.028 -227.98 931.785 -220.466C1121.55 -212.951 1282.82 -153.261 1365.95 -16.5267C1428.22 85.9103 1491.38 150.086 1543.24 197.299C1554.62 207.656 1565.42 217.173 1575.55 226.094C1588.54 237.536 1600.42 247.996 1610.95 257.988C1629.67 275.74 1643.96 291.829 1652.43 308.941C1669.29 343.021 1663.25 381.576 1621.46 446.135C1579.67 510.684 1502.33 600.919 1377.22 738.191C1313.51 808.097 1265.96 830.328 1224.43 826.243C1203.64 824.199 1184.2 815.551 1164.82 802.727C1145.42 789.896 1126.18 772.943 1105.76 754.366C1102.71 751.59 1099.64 748.778 1096.53 745.939C1058.12 710.828 1015.16 671.561 959.753 644.593C899.794 615.413 825.316 600.654 726.265 620.859Z" fill="url(#paint4_linear)" stroke="url(#paint5_linear)" stroke-width="2.33333"/>
<path opacity="0.444444" d="M734.695 616.51C685.853 625.568 640.99 633.989 599.71 641.738C475.513 665.049 383.741 682.275 313.592 692.478C220.081 706.079 165.314 707.141 123.566 693.687C81.8748 680.252 52.9434 652.27 11.2611 607.006C5.95066 601.239 0.436223 595.196 -5.33492 588.871C-44.8194 545.599 -96.3195 489.158 -176.695 418.114C-222.364 377.747 -237.313 332.191 -227.987 284.351C-218.642 236.414 -184.895 186.072 -132.867 136.389C-28.8253 37.0374 147.868 -59.2521 346.368 -127.95C544.859 -196.644 764.977 -237.688 955.798 -226.684C1146.63 -215.679 1307.84 -152.659 1389.14 -13.5372C1450.11 90.7811 1512.61 156.575 1564.02 205.074C1575.3 215.718 1586.02 225.5 1596.06 234.667C1608.94 246.423 1620.71 257.167 1631.14 267.419C1649.68 285.632 1663.77 302.073 1671.98 319.426C1688.34 353.96 1681.66 392.605 1638.51 456.852C1595.37 521.088 1516.02 610.553 1387.78 746.539C1322.48 815.781 1274.31 837.236 1232.7 832.384C1211.87 829.954 1192.48 820.915 1173.21 807.661C1153.93 794.399 1134.85 776.987 1114.62 757.907C1111.59 755.056 1108.54 752.167 1105.46 749.251C1067.4 713.196 1024.8 672.848 969.456 644.668C909.551 614.168 834.782 597.947 734.695 616.51Z" fill="url(#paint6_linear)" stroke="url(#paint7_linear)" stroke-width="2.77778"/>
<path opacity="0.555556" d="M743.197 612.425C693.886 620.664 648.592 628.332 606.915 635.388C481.527 656.617 388.88 672.302 318.112 681.307C223.769 693.312 168.684 693.382 126.955 679.097C85.29 664.834 56.682 636.177 15.4926 589.834C10.2459 583.931 4.79841 577.745 -0.902811 571.271C-39.9103 526.976 -90.7954 469.194 -170.497 396.182C-215.724 354.751 -229.974 308.671 -219.794 260.728C-209.59 212.673 -174.807 162.617 -121.619 113.536C-15.2593 15.3902 164.166 -78.3711 365.086 -143.957C565.995 -209.54 788.189 -246.882 980.01 -232.349C1171.85 -217.814 1332.93 -151.448 1412.35 -9.96111C1471.96 96.2237 1533.76 163.632 1584.69 213.415C1595.88 224.345 1606.5 234.392 1616.45 243.806C1629.21 255.874 1640.87 266.901 1651.2 277.415C1669.54 296.088 1683.42 312.879 1691.38 330.469C1707.21 365.448 1699.88 404.173 1655.38 468.081C1610.89 531.977 1529.53 620.629 1398.17 755.26C1331.29 823.804 1282.51 844.469 1240.83 838.845C1219.96 836.028 1200.64 826.597 1181.48 812.913C1162.32 799.22 1143.42 781.351 1123.38 761.768C1120.39 758.841 1117.36 755.876 1114.31 752.882C1076.62 715.886 1034.41 674.457 979.147 645.058C919.324 613.231 844.293 595.533 743.197 612.425Z" fill="url(#paint8_linear)" stroke="url(#paint9_linear)" stroke-width="3.22222"/>
<path opacity="0.666667" d="M751.766 608.606C701.999 616.012 656.284 622.916 614.221 629.269C487.679 648.379 394.184 662.499 322.819 670.287C227.672 680.671 172.286 679.737 130.592 664.618C88.9704 649.525 60.7005 620.196 20.0291 572.776C14.8494 566.737 9.47216 560.409 3.84435 553.787C-34.6625 508.473 -84.9011 449.354 -163.884 374.377C-208.647 331.885 -222.184 285.29 -211.143 237.26C-200.074 189.102 -164.254 139.354 -109.911 90.9003C-1.244 -5.98888 180.878 -97.1561 384.169 -159.567C587.447 -221.974 811.656 -255.555 1004.41 -237.454C1197.18 -219.351 1358.07 -149.625 1435.56 -5.79607C1493.76 102.239 1554.83 171.258 1605.26 222.323C1616.33 233.54 1626.85 243.851 1636.71 253.511C1649.34 265.891 1660.88 277.201 1671.09 287.974C1689.23 307.106 1702.89 324.244 1710.59 342.069C1725.89 377.486 1717.92 416.28 1672.06 479.82C1626.21 543.349 1542.84 631.144 1408.37 764.353C1339.91 832.164 1290.54 852.023 1248.81 845.624C1227.9 842.418 1208.66 832.595 1189.63 818.481C1170.59 804.356 1151.89 786.031 1132.05 765.947C1129.09 762.945 1126.09 759.903 1123.07 756.832C1085.77 718.895 1043.97 676.388 988.821 645.765C929.108 612.605 853.843 593.416 751.766 608.606Z" fill="url(#paint10_linear)" stroke="url(#paint11_linear)" stroke-width="3.66667"/>
<path opacity="0.777778" d="M760.397 605.057C710.189 611.616 664.068 617.743 621.631 623.38C493.969 640.339 399.652 652.869 327.711 659.422C231.787 668.16 176.12 666.212 134.478 650.256C92.9149 634.331 64.9978 604.333 24.8695 555.84C19.7598 549.665 14.4561 543.196 8.90514 536.426C-29.0773 490.098 -78.6382 429.647 -156.858 352.708C-201.133 309.157 -213.943 262.06 -202.036 213.957C-190.094 165.712 -153.239 116.292 -97.746 68.4918C13.2167 -27.0895 197.999 -115.597 403.611 -174.769C609.209 -233.938 835.367 -263.698 1028.99 -241.993C1222.63 -220.286 1383.26 -147.187 1458.75 -1.03959C1515.5 108.829 1575.8 179.452 1625.69 231.798C1636.65 243.3 1647.06 253.875 1656.82 263.78C1669.32 276.472 1680.73 288.064 1690.83 299.096C1708.75 318.685 1722.19 336.168 1729.62 354.223C1744.37 390.071 1735.74 428.923 1688.53 492.068C1641.33 555.2 1555.96 642.096 1418.38 773.815C1348.35 840.859 1298.4 859.898 1256.63 852.72C1235.7 849.124 1216.54 838.907 1197.65 824.364C1178.74 809.808 1160.24 791.028 1140.62 770.444C1137.68 767.366 1134.73 764.248 1131.74 761.099C1094.84 722.226 1053.47 678.641 998.47 646.789C938.895 612.291 863.427 591.596 760.397 605.057Z" fill="url(#paint12_linear)" stroke="url(#paint13_linear)" stroke-width="4.11111"/>
<path opacity="0.888889" d="M769.085 601.778C718.449 607.478 671.934 612.816 629.135 617.728C500.392 632.502 405.281 643.416 332.785 648.717C236.114 655.785 180.183 652.813 138.609 636.018C97.1219 619.257 69.5724 588.593 30.0123 539.033C24.9759 532.723 19.7491 526.113 14.2784 519.195C-23.1558 471.858 -72.0077 410.081 -149.42 331.183C-193.184 286.579 -205.254 238.989 -192.474 190.83C-179.653 142.515 -141.762 93.4436 -85.1266 46.3218C28.1189 -47.901 215.524 -133.683 423.405 -189.555C631.272 -245.423 859.314 -271.306 1053.74 -245.96C1248.18 -220.612 1408.48 -144.128 1481.92 4.3107C1537.17 115.995 1596.66 188.217 1645.98 241.839C1656.82 253.627 1667.12 264.465 1676.77 274.616C1689.13 287.617 1700.41 299.489 1710.38 310.78C1728.08 330.825 1741.28 348.65 1748.44 366.931C1762.65 403.202 1753.35 442.101 1704.79 504.822C1656.23 567.53 1568.87 653.483 1428.19 783.643C1356.59 849.886 1306.08 868.091 1264.29 860.132C1243.34 856.142 1224.27 845.533 1205.52 830.56C1186.76 815.574 1168.48 796.341 1149.08 775.258C1146.18 772.105 1143.25 768.911 1140.3 765.685C1103.83 725.877 1062.93 681.218 1008.09 648.132C948.68 612.289 873.038 590.077 769.085 601.778Z" fill="url(#paint14_linear)" stroke="url(#paint15_linear)" stroke-width="4.55556"/>
<path d="M777.825 598.774C726.776 603.601 679.882 608.138 636.735 612.313C506.946 624.869 411.069 634.145 338.039 638.176C240.65 643.552 184.474 639.545 142.985 621.908C101.59 604.31 74.4228 572.984 35.4561 522.361C30.4961 515.917 25.3495 509.167 19.9626 502.103C-16.8996 453.76 -65.0113 390.664 -141.571 309.813C-184.801 264.159 -196.118 216.089 -182.459 167.888C-168.753 119.519 -129.827 70.8183 -72.0561 24.4005C43.4585 -68.4128 233.447 -151.405 443.545 -203.916C653.626 -256.422 883.485 -278.369 1078.64 -249.349C1273.82 -220.326 1433.72 -140.447 1505.04 10.2568C1558.75 123.738 1617.4 197.551 1666.12 252.445C1676.84 264.518 1687.02 275.619 1696.55 286.013C1708.76 299.324 1719.91 311.476 1729.75 323.024C1747.21 343.522 1760.18 361.687 1767.05 380.191C1780.69 416.876 1770.74 455.81 1720.81 518.08C1670.91 580.335 1581.56 665.303 1437.8 793.836C1364.64 859.243 1313.57 876.6 1271.77 867.856C1250.82 863.472 1231.84 852.47 1213.25 837.069C1194.64 821.652 1176.58 801.968 1157.42 780.387C1154.55 777.159 1151.66 773.889 1148.74 770.587C1112.73 729.847 1072.31 684.116 1017.67 649.794C958.457 612.603 882.67 588.86 777.825 598.774Z" fill="url(#paint16_linear)" stroke="url(#paint17_linear)" stroke-width="5"/>
<defs>
<linearGradient id="paint0_linear" x1="1387.41" y1="657.931" x2="175.289" y2="969.615" gradientUnits="userSpaceOnUse">
<stop stop-color="white"/>
<stop offset="0.965162"/>
</linearGradient>
<linearGradient id="paint1_linear" x1="61.0116" y1="831.287" x2="1178.42" y2="-236.792" gradientUnits="userSpaceOnUse">
<stop stop-color="#103783"/>
<stop offset="1" stop-color="#9BAFD9"/>
</linearGradient>
<linearGradient id="paint2_linear" x1="1399.77" y1="665.771" x2="174.629" y2="958.79" gradientUnits="userSpaceOnUse">
<stop stop-color="white"/>
<stop offset="0.965162"/>
</linearGradient>
<linearGradient id="paint3_linear" x1="61.658" y1="816.285" x2="1204.96" y2="-238.641" gradientUnits="userSpaceOnUse">
<stop stop-color="#103783"/>
<stop offset="1" stop-color="#9BAFD9"/>
</linearGradient>
<linearGradient id="paint4_linear" x1="1411.98" y1="674.02" x2="174.098" y2="948.011" gradientUnits="userSpaceOnUse">
<stop stop-color="white"/>
<stop offset="0.965162"/>
</linearGradient>
<linearGradient id="paint5_linear" x1="62.5447" y1="801.336" x2="1231.62" y2="-239.858" gradientUnits="userSpaceOnUse">
<stop stop-color="#103783"/>
<stop offset="1" stop-color="#9BAFD9"/>
</linearGradient>
<linearGradient id="paint6_linear" x1="1424.02" y1="682.676" x2="173.697" y2="937.282" gradientUnits="userSpaceOnUse">
<stop stop-color="white"/>
<stop offset="0.965162"/>
</linearGradient>
<linearGradient id="paint7_linear" x1="63.6715" y1="786.444" x2="1258.38" y2="-240.436" gradientUnits="userSpaceOnUse">
<stop stop-color="#103783"/>
<stop offset="1" stop-color="#9BAFD9"/>
</linearGradient>
<linearGradient id="paint8_linear" x1="1435.89" y1="691.738" x2="173.425" y2="926.605" gradientUnits="userSpaceOnUse">
<stop stop-color="white"/>
<stop offset="0.965162"/>
</linearGradient>
<linearGradient id="paint9_linear" x1="65.0373" y1="771.617" x2="1285.23" y2="-240.372" gradientUnits="userSpaceOnUse">
<stop stop-color="#103783"/>
<stop offset="1" stop-color="#9BAFD9"/>
</linearGradient>
<linearGradient id="paint10_linear" x1="1447.57" y1="701.204" x2="173.28" y2="915.983" gradientUnits="userSpaceOnUse">
<stop stop-color="white"/>
<stop offset="0.965162"/>
</linearGradient>
<linearGradient id="paint11_linear" x1="66.6422" y1="756.857" x2="1312.17" y2="-239.661" gradientUnits="userSpaceOnUse">
<stop stop-color="#103783"/>
<stop offset="1" stop-color="#9BAFD9"/>
</linearGradient>
<linearGradient id="paint12_linear" x1="1459.06" y1="711.071" x2="173.263" y2="905.42" gradientUnits="userSpaceOnUse">
<stop stop-color="white"/>
<stop offset="0.965162"/>
</linearGradient>
<linearGradient id="paint13_linear" x1="68.4856" y1="742.172" x2="1339.17" y2="-238.299" gradientUnits="userSpaceOnUse">
<stop stop-color="#103783"/>
<stop offset="1" stop-color="#9BAFD9"/>
</linearGradient>
<linearGradient id="paint14_linear" x1="1470.35" y1="721.337" x2="173.374" y2="894.918" gradientUnits="userSpaceOnUse">
<stop stop-color="white"/>
<stop offset="0.965162"/>
</linearGradient>
<linearGradient id="paint15_linear" x1="70.5669" y1="727.567" x2="1366.23" y2="-236.28" gradientUnits="userSpaceOnUse">
<stop stop-color="#103783"/>
<stop offset="1" stop-color="#9BAFD9"/>
</linearGradient>
<linearGradient id="paint16_linear" x1="-9.16924" y1="687.941" x2="1527.17" y2="-207.33" gradientUnits="userSpaceOnUse">
<stop/>
<stop offset="1" stop-color="#4F4F8D"/>
</linearGradient>
<linearGradient id="paint17_linear" x1="72.8856" y1="713.046" x2="1393.33" y2="-233.603" gradientUnits="userSpaceOnUse">
<stop stop-color="#103783"/>
<stop offset="1" stop-color="#9BAFD9"/>
</linearGradient>
</defs>
</svg>
