<svg width="1440" height="1024" viewBox="0 0 1440 1024" fill="none" xmlns="http://www.w3.org/2000/svg">
<path opacity="0.111111" d="M721.717 616.336C674.365 627.768 630.873 638.368 590.851 648.122C470.427 677.471 381.426 699.162 313.25 712.845C222.394 731.081 168.687 735.055 126.98 724.07C85.3031 713.093 55.4898 687.15 12.4786 645.142C6.99587 639.787 1.30026 634.173 -4.66003 628.298C-45.4331 588.108 -98.5916 535.711 -180.725 470.573C-227.58 433.414 -244.542 389.49 -237.736 342.048C-230.922 294.556 -200.278 243.48 -151.757 192.144C-54.7225 89.4803 113.583 -13.9918 304.547 -91.6354C495.506 -169.277 709.033 -221.055 896.472 -220.398C1083.92 -219.742 1245.1 -166.658 1331.7 -34.7594C1396.46 63.8745 1460.82 124.807 1513.49 169.445C1525.03 179.23 1536 188.217 1546.28 196.644C1559.48 207.459 1571.54 217.35 1582.27 226.818C1601.32 243.646 1615.99 259.027 1624.94 275.647C1642.79 308.8 1638.02 347.142 1598.92 412.241C1559.82 477.334 1486.52 568.98 1367.69 708.623C1307.16 779.755 1260.88 803.49 1219.56 800.929C1198.88 799.647 1179.35 791.779 1159.77 779.814C1140.19 767.845 1120.63 751.81 1099.89 734.24C1096.79 731.616 1093.67 728.958 1090.52 726.274C1051.48 693.052 1007.87 655.946 952.412 631.385C892.429 604.82 818.616 592.94 721.717 616.336Z" fill="url(#paint0_linear)" stroke="url(#paint1_linear)" stroke-width="1.44444"/>
<path opacity="0.222222" d="M729.986 611.469C682.125 622.124 638.164 632.01 597.712 641.108C475.998 668.48 386.048 688.709 317.195 701.252C225.428 717.969 171.35 720.984 129.614 709.18C87.9163 697.387 58.3822 670.762 15.7891 627.667C10.3607 622.175 4.72219 616.417 -1.17845 610.392C-41.5457 569.173 -94.1825 515.425 -175.774 448.319C-222.257 410.089 -238.562 365.611 -230.923 318.022C-223.273 270.366 -191.596 219.515 -141.902 168.704C-42.5243 67.0935 128.608 -34.0516 322.129 -108.779C515.643 -183.504 731.426 -231.766 920.055 -227.701C1108.69 -223.637 1269.95 -167.259 1354.84 -32.9328C1418.38 67.609 1482.16 130.164 1534.44 176.09C1545.9 186.16 1556.79 195.412 1567 204.085C1580.1 215.214 1592.07 225.391 1602.7 235.121C1621.6 252.411 1636.08 268.147 1644.79 285.015C1662.15 318.635 1656.75 357.088 1616.3 421.931C1575.86 486.766 1500.54 577.728 1378.57 716.219C1316.45 786.755 1269.52 809.746 1228.09 806.425C1207.36 804.763 1187.86 796.505 1168.38 784.111C1148.89 771.712 1129.48 755.217 1108.9 737.143C1105.82 734.443 1102.72 731.708 1099.59 728.947C1060.86 694.78 1017.57 656.594 962.118 630.833C902.133 602.965 827.973 589.653 729.986 611.469Z" fill="url(#paint2_linear)" stroke="url(#paint3_linear)" stroke-width="1.88889"/>
<path opacity="0.333333" d="M738.338 606.859C689.98 616.723 645.562 625.883 604.69 634.312C481.718 659.672 390.845 678.412 321.334 689.795C228.682 704.966 174.25 707.011 132.5 694.384C90.7978 681.772 61.5576 654.467 19.4074 610.287C14.0364 604.657 8.45824 598.756 2.62056 592.581C-37.3171 550.334 -89.4011 495.238 -170.407 426.163C-216.494 386.863 -232.128 341.842 -223.649 294.12C-215.156 246.316 -182.444 195.709 -131.581 145.449C-29.867 44.9425 144.062 -53.8082 340.095 -125.553C536.12 -197.295 754.1 -241.979 943.857 -234.465C1133.63 -226.951 1294.89 -167.26 1378.02 -30.5262C1440.29 71.9108 1503.45 136.086 1555.31 183.299C1566.69 193.656 1577.49 203.174 1587.62 212.094C1600.61 223.536 1612.49 233.997 1623.02 243.988C1641.74 261.74 1656.03 277.83 1664.5 294.942C1681.36 329.022 1675.33 367.576 1633.53 432.135C1591.74 496.685 1514.4 586.919 1389.29 724.192C1325.58 794.098 1278.03 816.328 1236.5 812.244C1215.71 810.199 1196.27 801.551 1176.89 788.727C1157.5 775.897 1138.25 758.943 1117.83 740.366C1114.78 737.59 1111.71 734.779 1108.6 731.94C1070.19 696.828 1027.24 657.561 971.825 630.594C911.866 601.413 837.388 586.655 738.338 606.859Z" fill="url(#paint4_linear)" stroke="url(#paint5_linear)" stroke-width="2.33333"/>
<path opacity="0.444444" d="M746.767 602.51C697.925 611.569 653.062 619.99 611.781 627.738C487.585 651.05 395.813 668.275 325.664 678.478C232.153 692.079 177.386 693.142 135.638 679.688C93.9466 666.252 65.0151 638.27 23.3328 593.007C18.0224 587.24 12.508 581.197 6.73686 574.872C-32.7476 531.599 -84.2477 475.158 -164.624 404.115C-210.293 363.748 -225.241 318.192 -215.915 270.352C-206.57 222.415 -172.823 172.073 -120.795 122.39C-16.7536 23.0381 159.94 -73.2513 358.44 -141.949C556.931 -210.644 777.048 -251.687 967.87 -240.683C1158.7 -229.678 1319.91 -166.658 1401.22 -27.5365C1462.18 76.7819 1524.68 142.576 1576.09 191.074C1587.37 201.718 1598.09 211.501 1608.13 220.668C1621.01 232.423 1632.78 243.167 1643.22 253.42C1661.75 271.633 1675.84 288.074 1684.06 305.427C1700.41 339.96 1693.73 378.605 1650.58 442.852C1607.44 507.089 1528.09 596.554 1399.85 732.54C1334.56 801.782 1286.38 823.237 1244.77 818.384C1223.94 815.955 1204.55 806.915 1185.28 793.661C1166 780.4 1146.92 762.988 1126.69 743.908C1123.66 741.056 1120.61 738.168 1117.54 735.252C1079.47 699.197 1036.88 658.849 981.528 630.669C921.623 600.169 846.853 583.947 746.767 602.51Z" fill="url(#paint6_linear)" stroke="url(#paint7_linear)" stroke-width="2.77778"/>
<path opacity="0.555556" d="M755.269 598.426C705.958 606.665 660.664 614.333 618.987 621.389C493.599 642.618 400.951 658.303 330.184 667.308C235.841 679.313 180.755 679.382 139.027 665.098C97.3618 650.835 68.7537 622.178 27.5644 575.835C22.3177 569.931 16.8702 563.745 11.169 557.271C-27.8386 512.977 -78.7236 455.195 -158.425 382.183C-203.653 340.752 -217.902 294.672 -207.722 246.729C-197.519 198.673 -162.736 148.618 -109.547 99.5369C-3.18755 1.39095 176.238 -92.3704 377.158 -157.957C578.066 -223.539 800.261 -260.881 992.082 -246.348C1183.92 -231.813 1345 -165.448 1424.42 -23.9604C1484.03 82.2245 1545.84 149.633 1596.77 199.416C1607.95 210.346 1618.57 220.393 1628.52 229.806C1641.28 241.875 1652.94 252.902 1663.27 263.416C1681.61 282.088 1695.49 298.879 1703.45 316.47C1719.28 351.449 1711.96 390.174 1667.45 454.082C1622.96 517.978 1541.6 606.63 1410.24 741.261C1343.36 809.805 1294.58 830.469 1252.9 824.845C1232.03 822.029 1212.71 812.597 1193.56 798.913C1174.39 785.22 1155.5 767.351 1135.45 747.769C1132.46 744.842 1129.44 741.877 1126.39 738.883C1088.69 701.886 1046.48 660.458 991.219 631.059C931.396 599.232 856.364 581.534 755.269 598.426Z" fill="url(#paint8_linear)" stroke="url(#paint9_linear)" stroke-width="3.22222"/>
<path opacity="0.666667" d="M763.838 594.607C714.071 602.013 668.356 608.917 626.293 615.269C499.751 634.38 406.256 648.5 334.891 656.288C239.744 666.671 184.358 665.738 142.664 650.619C101.042 635.526 72.7723 606.197 32.1009 558.777C26.9211 552.738 21.5439 546.41 15.9161 539.787C-22.5907 494.474 -72.8293 435.355 -151.812 360.378C-196.575 317.885 -210.112 271.291 -199.072 223.261C-188.002 175.103 -152.183 125.354 -97.8392 76.901C10.8278 -19.9881 192.95 -111.155 396.241 -173.566C599.519 -235.973 823.727 -269.554 1016.48 -251.453C1209.25 -233.351 1370.14 -163.625 1447.63 -19.7953C1505.83 88.24 1566.9 157.258 1617.33 208.324C1628.4 219.541 1638.92 229.852 1648.78 239.512C1661.41 251.892 1672.95 263.202 1683.17 273.975C1701.31 293.107 1714.96 310.245 1722.66 328.069C1737.96 363.487 1729.99 402.281 1684.13 465.821C1638.28 529.349 1554.92 617.145 1420.44 750.354C1351.98 818.165 1302.61 838.024 1260.88 831.625C1239.98 828.419 1220.73 818.595 1201.7 804.481C1182.66 790.357 1163.96 772.032 1144.12 751.948C1141.16 748.945 1138.17 745.904 1135.15 742.833C1097.84 704.896 1056.04 662.389 1000.89 631.766C941.179 598.606 865.915 579.416 763.838 594.607Z" fill="url(#paint10_linear)" stroke="url(#paint11_linear)" stroke-width="3.66667"/>
<path opacity="0.777778" d="M772.469 591.057C722.261 597.617 676.14 603.744 633.703 609.381C506.041 626.34 411.724 638.869 339.783 645.423C243.859 654.161 188.191 652.213 146.549 636.257C104.987 620.332 77.0695 590.334 36.9413 541.841C31.8316 535.666 26.5279 529.197 20.9769 522.426C-17.0055 476.099 -66.5664 415.648 -144.786 338.708C-189.061 295.158 -201.872 248.06 -189.964 199.958C-178.022 151.713 -141.167 102.293 -85.6742 54.4925C25.2885 -41.0888 210.071 -129.596 415.683 -188.769C621.281 -247.937 847.439 -277.698 1041.06 -255.992C1234.7 -234.285 1395.33 -161.186 1470.82 -15.0389C1527.57 94.8301 1587.87 165.453 1637.76 217.799C1648.72 229.301 1659.14 239.876 1668.89 249.781C1681.39 262.473 1692.8 274.064 1702.9 285.097C1720.82 304.686 1734.26 322.169 1741.69 340.224C1756.45 376.072 1747.81 414.924 1700.6 478.069C1653.4 541.201 1568.03 628.097 1430.45 759.815C1360.42 826.86 1310.47 845.899 1268.7 838.721C1247.77 835.124 1228.61 824.908 1209.72 810.364C1190.81 795.809 1172.32 777.029 1152.69 756.445C1149.76 753.367 1146.8 750.249 1143.81 747.1C1106.91 708.226 1065.55 664.642 1010.54 632.79C950.967 598.291 875.498 577.597 772.469 591.057Z" fill="url(#paint12_linear)" stroke="url(#paint13_linear)" stroke-width="4.11111"/>
<path opacity="0.888889" d="M781.157 587.779C730.52 593.479 684.005 598.817 641.207 603.728C512.463 618.502 417.353 629.417 344.857 634.718C248.186 641.786 192.255 638.814 150.681 622.018C109.194 605.258 81.6441 574.594 42.0841 525.033C37.0476 518.724 31.8208 512.114 26.3502 505.196C-11.084 457.858 -59.936 396.082 -137.348 317.184C-181.112 272.579 -193.182 224.99 -180.403 176.83C-167.581 128.515 -129.69 79.4444 -73.0548 32.3225C40.1907 -61.9002 227.595 -147.682 435.477 -203.555C643.343 -259.423 871.385 -285.305 1065.81 -259.96C1260.25 -234.612 1420.55 -158.127 1493.99 -9.68857C1549.24 101.996 1608.73 174.218 1658.05 227.84C1668.89 239.627 1679.2 250.466 1688.84 260.616C1701.2 273.618 1712.48 285.49 1722.45 296.781C1740.16 316.825 1753.36 334.651 1760.51 352.932C1774.72 389.202 1765.42 428.101 1716.86 490.823C1668.3 553.531 1580.94 639.484 1440.26 769.644C1368.67 835.887 1318.15 854.092 1276.36 846.132C1255.41 842.143 1236.34 831.534 1217.59 816.561C1198.83 801.575 1180.55 782.342 1161.15 761.259C1158.25 758.105 1155.32 754.912 1152.37 751.686C1115.9 711.878 1075 667.218 1020.16 634.133C960.752 598.29 885.11 576.078 781.157 587.779Z" fill="url(#paint14_linear)" stroke="url(#paint15_linear)" stroke-width="4.55556"/>
<path d="M789.897 584.775C738.848 589.602 691.954 594.139 648.807 598.313C519.018 610.87 423.14 620.146 350.111 624.177C252.722 629.552 196.546 625.546 155.057 607.908C113.662 590.311 86.4946 558.985 47.5279 508.361C42.5679 501.918 37.4213 495.168 32.0344 488.104C-4.82786 439.761 -52.9395 376.665 -129.499 295.813C-172.729 250.16 -184.046 202.089 -170.388 153.889C-156.681 105.519 -117.755 56.819 -59.9843 10.4012C55.5303 -82.412 245.518 -165.404 455.617 -217.915C665.698 -270.421 895.557 -292.369 1090.71 -263.349C1285.89 -234.326 1445.79 -154.446 1517.11 -3.74251C1570.82 109.738 1629.47 183.552 1678.19 238.446C1688.91 250.518 1699.09 261.619 1708.62 272.014C1720.83 285.325 1731.98 297.477 1741.82 309.025C1759.29 329.523 1772.25 347.688 1779.13 366.192C1792.77 402.876 1782.81 441.811 1732.89 504.081C1682.98 566.336 1593.63 651.303 1449.87 779.837C1376.71 845.244 1325.64 862.601 1283.85 853.856C1262.89 849.473 1243.91 838.471 1225.32 823.069C1206.71 807.653 1188.65 787.969 1169.49 766.388C1166.63 763.16 1163.74 759.89 1160.82 756.588C1124.81 715.848 1084.38 670.117 1029.74 635.794C970.529 598.603 894.742 574.86 789.897 584.775Z" fill="url(#paint16_linear)" stroke="url(#paint17_linear)" stroke-width="5"/>
<defs>
<linearGradient id="paint0_linear" x1="1399.49" y1="643.931" x2="187.361" y2="955.616" gradientUnits="userSpaceOnUse">
<stop stop-color="#F5F6F7"/>
<stop offset="0.965162" stop-color="#B3F1FF"/>
</linearGradient>
<linearGradient id="paint1_linear" x1="46.6777" y1="782.397" x2="1295.58" y2="-162.79" gradientUnits="userSpaceOnUse">
<stop stop-color="#103783"/>
<stop offset="1" stop-color="#9BAFD9"/>
</linearGradient>
<linearGradient id="paint2_linear" x1="1411.85" y1="651.772" x2="186.701" y2="944.79" gradientUnits="userSpaceOnUse">
<stop stop-color="#F5F6F7"/>
<stop offset="0.965162" stop-color="#B3F1FF"/>
</linearGradient>
<linearGradient id="paint3_linear" x1="47.7369" y1="766.665" x2="1320.98" y2="-162.444" gradientUnits="userSpaceOnUse">
<stop stop-color="#103783"/>
<stop offset="1" stop-color="#9BAFD9"/>
</linearGradient>
<linearGradient id="paint4_linear" x1="1424.05" y1="660.021" x2="186.171" y2="934.012" gradientUnits="userSpaceOnUse">
<stop stop-color="#F5F6F7"/>
<stop offset="0.965162" stop-color="#B3F1FF"/>
</linearGradient>
<linearGradient id="paint5_linear" x1="49.0535" y1="750.989" x2="1346.45" y2="-161.477" gradientUnits="userSpaceOnUse">
<stop stop-color="#103783"/>
<stop offset="1" stop-color="#9BAFD9"/>
</linearGradient>
<linearGradient id="paint6_linear" x1="1436.09" y1="668.677" x2="185.769" y2="923.282" gradientUnits="userSpaceOnUse">
<stop stop-color="#F5F6F7"/>
<stop offset="0.965162" stop-color="#B3F1FF"/>
</linearGradient>
<linearGradient id="paint7_linear" x1="50.6272" y1="735.375" x2="1371.98" y2="-159.886" gradientUnits="userSpaceOnUse">
<stop stop-color="#103783"/>
<stop offset="1" stop-color="#9BAFD9"/>
</linearGradient>
<linearGradient id="paint8_linear" x1="1447.96" y1="677.739" x2="185.496" y2="912.606" gradientUnits="userSpaceOnUse">
<stop stop-color="#F5F6F7"/>
<stop offset="0.965162" stop-color="#B3F1FF"/>
</linearGradient>
<linearGradient id="paint9_linear" x1="52.4579" y1="719.83" x2="1397.56" y2="-157.667" gradientUnits="userSpaceOnUse">
<stop stop-color="#103783"/>
<stop offset="1" stop-color="#9BAFD9"/>
</linearGradient>
<linearGradient id="paint10_linear" x1="1459.64" y1="687.205" x2="185.352" y2="901.984" gradientUnits="userSpaceOnUse">
<stop stop-color="#F5F6F7"/>
<stop offset="0.965162" stop-color="#B3F1FF"/>
</linearGradient>
<linearGradient id="paint11_linear" x1="54.545" y1="704.358" x2="1423.18" y2="-154.816" gradientUnits="userSpaceOnUse">
<stop stop-color="#103783"/>
<stop offset="1" stop-color="#9BAFD9"/>
</linearGradient>
<linearGradient id="paint12_linear" x1="1471.13" y1="697.072" x2="185.335" y2="891.421" gradientUnits="userSpaceOnUse">
<stop stop-color="#F5F6F7"/>
<stop offset="0.965162" stop-color="#B3F1FF"/>
</linearGradient>
<linearGradient id="paint13_linear" x1="56.8882" y1="688.966" x2="1448.82" y2="-151.331" gradientUnits="userSpaceOnUse">
<stop stop-color="#103783"/>
<stop offset="1" stop-color="#9BAFD9"/>
</linearGradient>
<linearGradient id="paint14_linear" x1="1482.42" y1="707.338" x2="185.445" y2="880.918" gradientUnits="userSpaceOnUse">
<stop stop-color="#F5F6F7"/>
<stop offset="0.965162" stop-color="#B3F1FF"/>
</linearGradient>
<linearGradient id="paint15_linear" x1="59.4867" y1="673.659" x2="1474.48" y2="-147.206" gradientUnits="userSpaceOnUse">
<stop stop-color="#103783"/>
<stop offset="1" stop-color="#9BAFD9"/>
</linearGradient>
<linearGradient id="paint16_linear" x1="1493.5" y1="718.001" x2="185.682" y2="870.48" gradientUnits="userSpaceOnUse">
<stop stop-color="#F5F6F7"/>
<stop offset="0.965162" stop-color="#B3F1FF"/>
</linearGradient>
<linearGradient id="paint17_linear" x1="62.3397" y1="658.443" x2="1500.13" y2="-142.441" gradientUnits="userSpaceOnUse">
<stop stop-color="#103783"/>
<stop offset="1" stop-color="#9BAFD9"/>
</linearGradient>
</defs>
</svg>
