<svg width="1440" height="1024" fill="none" xmlns="http://www.w3.org/2000/svg"><path opacity=".111" d="M721.717 616.336c-47.352 11.432-90.844 22.032-130.866 31.786-120.424 29.349-209.425 51.04-277.601 64.723-90.856 18.236-144.563 22.21-186.27 11.225-41.677-10.977-71.49-36.92-114.501-78.928A5325.87 5325.87 0 01-4.66 628.298c-40.773-40.19-93.932-92.587-176.065-157.725-46.855-37.159-63.817-81.083-57.011-128.525 6.814-47.492 37.458-98.568 85.979-149.904C-54.722 89.48 113.583-13.992 304.547-91.636c190.959-77.641 404.486-129.419 591.925-128.762 187.448.656 348.628 53.74 435.228 185.639 64.76 98.633 129.12 159.566 181.79 204.204 11.54 9.785 22.51 18.772 32.79 27.199 13.2 10.815 25.26 20.706 35.99 30.174 19.05 16.828 33.72 32.209 42.67 48.829 17.85 33.153 13.08 71.495-26.02 136.594-39.1 65.093-112.4 156.739-231.23 296.382-60.53 71.132-106.81 94.867-148.13 92.306-20.68-1.282-40.21-9.15-59.79-21.115-19.58-11.969-39.14-28.004-59.88-45.574-3.1-2.624-6.22-5.282-9.37-7.966-39.04-33.222-82.65-70.328-138.108-94.889-59.983-26.565-133.796-38.445-230.695-15.049z" fill="url(#paint0_linear)" stroke="url(#paint1_linear)" stroke-width="1.444"/><path opacity=".222" d="M729.986 611.469c-47.861 10.655-91.822 20.541-132.274 29.639-121.714 27.372-211.664 47.601-280.517 60.144-91.767 16.717-145.845 19.732-187.581 7.928-41.698-11.793-71.232-38.418-113.825-81.513-5.428-5.492-11.067-11.25-16.967-17.275-40.368-41.219-93.005-94.967-174.596-162.073-46.483-38.23-62.788-82.708-55.149-130.297 7.65-47.656 39.327-98.507 89.021-149.318 99.378-101.61 270.51-202.756 464.031-277.483 193.514-74.725 409.297-122.987 597.926-118.922 188.635 4.064 349.895 60.442 434.785 194.768 63.54 100.542 127.32 163.097 179.6 209.023 11.46 10.07 22.35 19.322 32.56 27.995 13.1 11.129 25.07 21.306 35.7 31.036 18.9 17.29 33.38 33.026 42.09 49.894 17.36 33.62 11.96 72.073-28.49 136.916-40.44 64.835-115.76 155.797-237.73 294.288-62.12 70.536-109.05 93.527-150.48 90.206-20.73-1.662-40.23-9.92-59.71-22.314-19.49-12.399-38.9-28.894-59.48-46.968-3.08-2.7-6.18-5.435-9.31-8.196-38.73-34.167-82.02-72.353-137.472-98.114-59.985-27.868-134.145-41.18-232.132-19.364z" fill="url(#paint2_linear)" stroke="url(#paint3_linear)" stroke-width="1.889"/><path opacity=".333" d="M738.338 606.859c-48.358 9.864-92.776 19.024-133.648 27.453-122.972 25.36-213.845 44.1-283.356 55.483-92.652 15.171-147.084 17.216-188.834 4.589-41.702-12.612-70.942-39.917-113.093-84.097-5.37-5.63-10.949-11.531-16.786-17.706-39.938-42.247-92.022-97.343-173.028-166.418-46.087-39.3-61.721-84.321-53.242-132.043 8.493-47.804 41.205-98.411 92.068-148.671C-29.867 44.942 144.062-53.808 340.095-125.553 536.12-197.295 754.1-241.979 943.857-234.465c189.773 7.514 351.033 67.205 434.163 203.939 62.27 102.437 125.43 166.612 177.29 213.825 11.38 10.357 22.18 19.875 32.31 28.795 12.99 11.442 24.87 21.903 35.4 31.894 18.72 17.752 33.01 33.842 41.48 50.954 16.86 34.08 10.83 72.634-30.97 137.193-41.79 64.55-119.13 154.784-244.24 292.057-63.71 69.906-111.26 92.136-152.79 88.052-20.79-2.045-40.23-10.693-59.61-23.517-19.39-12.83-38.64-29.784-59.06-48.361-3.05-2.776-6.12-5.587-9.23-8.426-38.41-35.112-81.36-74.379-136.775-101.346-59.959-29.181-134.437-43.939-233.487-23.735z" fill="url(#paint4_linear)" stroke="url(#paint5_linear)" stroke-width="2.333"/><path opacity=".444" d="M746.767 602.51c-48.842 9.059-93.705 17.48-134.986 25.228-124.196 23.312-215.968 40.537-286.117 50.74-93.511 13.601-148.278 14.664-190.026 1.21-41.691-13.436-70.623-41.418-112.305-86.681a5468.839 5468.839 0 01-16.596-18.135c-39.485-43.273-90.985-99.714-171.361-170.757-45.669-40.367-60.617-85.923-51.291-133.763 9.345-47.937 43.092-98.279 95.12-147.962C-16.754 23.038 159.94-73.251 358.44-141.949c198.491-68.695 418.608-109.738 609.43-98.734 190.83 11.005 352.04 74.025 433.35 213.147 60.96 104.318 123.46 170.112 174.87 218.61 11.28 10.644 22 20.427 32.04 29.594 12.88 11.755 24.65 22.499 35.09 32.752 18.53 18.213 32.62 34.654 40.84 52.007 16.35 34.533 9.67 73.178-33.48 137.425-43.14 64.237-122.49 153.702-250.73 289.688-65.29 69.242-113.47 90.697-155.08 85.844-20.83-2.429-40.22-11.469-59.49-24.723-19.28-13.261-38.36-30.673-58.59-49.753-3.03-2.852-6.08-5.74-9.15-8.656-38.07-36.055-80.66-76.403-136.012-104.583-59.905-30.5-134.675-46.722-234.761-28.159z" fill="url(#paint6_linear)" stroke="url(#paint7_linear)" stroke-width="2.778"/><path opacity=".556" d="M755.269 598.426c-49.311 8.239-94.605 15.907-136.282 22.963-125.388 21.229-218.036 36.914-288.803 45.919-94.343 12.005-149.429 12.074-191.157-2.21-41.665-14.263-70.273-42.92-111.463-89.263-5.246-5.904-10.694-12.09-16.395-18.564-39.008-44.294-89.893-102.076-169.594-175.088-45.228-41.431-59.477-87.511-49.297-135.454 10.203-48.056 44.986-98.111 98.175-147.192C-3.187 1.39 176.238-92.37 377.158-157.957c200.908-65.582 423.103-102.924 614.924-88.391C1183.92-231.813 1345-165.448 1424.42-23.96c59.61 106.185 121.42 173.593 172.35 223.376 11.18 10.93 21.8 20.977 31.75 30.39 12.76 12.069 24.42 23.096 34.75 33.61 18.34 18.672 32.22 35.463 40.18 53.054 15.83 34.979 8.51 73.704-36 137.612-44.49 63.896-125.85 152.548-257.21 287.179-66.88 68.544-115.66 89.208-157.34 83.584-20.87-2.816-40.19-12.248-59.34-25.932-19.17-13.693-38.06-31.562-58.11-51.144-2.99-2.927-6.01-5.892-9.06-8.886-37.7-36.997-79.91-78.425-135.171-107.824-59.823-31.827-134.855-49.525-235.95-32.633z" fill="url(#paint8_linear)" stroke="url(#paint9_linear)" stroke-width="3.222"/><path opacity=".667" d="M763.838 594.607c-49.767 7.406-95.482 14.31-137.545 20.662-126.542 19.111-220.037 33.231-291.402 41.019-95.147 10.383-150.533 9.45-192.227-5.669-41.622-15.093-69.892-44.422-110.563-91.842a5480.117 5480.117 0 01-16.185-18.99c-38.507-45.313-88.745-104.432-167.728-179.409-44.763-42.493-58.3-89.087-47.26-137.117 11.07-48.158 46.889-97.907 101.233-146.36C10.828-19.989 192.95-111.155 396.24-173.566c203.278-62.407 427.486-95.988 620.239-77.887 192.77 18.102 353.66 87.828 431.15 231.658 58.2 108.035 119.27 177.053 169.7 228.119 11.07 11.217 21.59 21.528 31.45 31.188 12.63 12.38 24.17 23.69 34.39 34.463 18.14 19.132 31.79 36.27 39.49 54.094 15.3 35.418 7.33 74.212-38.53 137.752-45.85 63.528-129.21 151.324-263.69 284.533-68.46 67.811-117.83 87.67-159.56 81.271-20.9-3.206-40.15-13.03-59.18-27.144-19.04-14.124-37.74-32.449-57.58-52.533-2.96-3.003-5.95-6.044-8.97-9.115-37.31-37.937-79.11-80.444-134.26-111.067-59.711-33.16-134.975-52.35-237.052-37.159z" fill="url(#paint10_linear)" stroke="url(#paint11_linear)" stroke-width="3.667"/><path opacity=".778" d="M772.469 591.057c-50.208 6.56-96.329 12.687-138.766 18.324-127.662 16.959-221.979 29.488-293.92 36.042-95.924 8.738-151.592 6.79-193.234-9.166-41.562-15.925-69.48-45.923-109.608-94.416a5587.496 5587.496 0 01-15.964-19.415c-37.983-46.327-87.543-106.778-165.763-183.718-44.275-43.55-57.086-90.648-45.178-138.75 11.942-48.245 48.797-97.665 104.29-145.465C25.289-41.09 210.07-129.596 415.683-188.77c205.598-59.168 431.756-88.929 625.377-67.223 193.64 21.707 354.27 94.806 429.76 240.953 56.75 109.87 117.05 180.492 166.94 232.838 10.96 11.502 21.38 22.077 31.13 31.982 12.5 12.692 23.91 24.283 34.01 35.316 17.92 19.589 31.36 37.072 38.79 55.127 14.76 35.848 6.12 74.7-41.09 137.845-47.2 63.132-132.57 150.028-270.15 281.746-70.03 67.045-119.98 86.084-161.75 78.906-20.93-3.597-40.09-13.813-58.98-28.357-18.91-14.555-37.4-33.335-57.03-53.919-2.93-3.078-5.89-6.196-8.88-9.345-36.9-38.874-78.26-82.458-133.27-114.31-59.573-34.499-135.042-55.193-238.071-41.733z" fill="url(#paint12_linear)" stroke="url(#paint13_linear)" stroke-width="4.111"/><path opacity=".889" d="M781.157 587.779c-50.637 5.7-97.152 11.038-139.95 15.949-128.744 14.774-223.854 25.689-296.35 30.99-96.671 7.068-152.602 4.096-194.176-12.7-41.487-16.76-69.037-47.424-108.597-96.985-5.036-6.309-10.263-12.919-15.734-19.837-37.434-47.338-86.286-109.114-163.698-188.012-43.764-44.605-55.834-92.194-43.055-140.354 12.822-48.315 50.713-97.386 107.348-144.508C40.191-61.9 227.595-147.681 435.477-203.555c207.866-55.868 435.908-81.75 630.333-56.405 194.44 25.348 354.74 101.833 428.18 250.271 55.25 111.685 114.74 183.907 164.06 237.529 10.84 11.787 21.15 22.626 30.79 32.776 12.36 13.002 23.64 24.874 33.61 36.165 17.71 20.044 30.91 37.87 38.06 56.151 14.21 36.27 4.91 75.169-43.65 137.891-48.56 62.708-135.92 148.661-276.6 278.821-71.59 66.243-122.11 84.448-163.9 76.488-20.95-3.989-40.02-14.598-58.77-29.571-18.76-14.986-37.04-34.219-56.44-55.302-2.9-3.154-5.83-6.347-8.78-9.573-36.47-39.808-77.37-84.468-132.21-117.553-59.408-35.843-135.05-58.055-239.003-46.354z" fill="url(#paint14_linear)" stroke="url(#paint15_linear)" stroke-width="4.556"/><path d="M789.897 584.775c-51.049 4.827-97.943 9.364-141.09 13.538-129.789 12.557-225.667 21.833-298.696 25.864-97.389 5.375-153.565 1.369-195.054-16.269-41.395-17.597-68.562-48.923-107.53-99.547-4.96-6.443-10.106-13.193-15.493-20.257-36.862-48.343-84.974-111.439-161.533-192.291-43.23-45.653-54.547-93.724-40.889-141.924 13.707-48.37 52.633-97.07 110.404-143.488C55.53-82.412 245.518-165.404 455.617-217.915c210.081-52.506 439.94-74.454 635.093-45.434 195.18 29.023 355.08 108.903 426.4 259.606 53.71 113.481 112.36 187.295 161.08 242.189 10.72 12.072 20.9 23.173 30.43 33.568 12.21 13.311 23.36 25.463 33.2 37.011 17.47 20.498 30.43 38.663 37.31 57.167 13.64 36.684 3.68 75.619-46.24 137.889-49.91 62.255-139.26 147.222-283.02 275.756-73.16 65.407-124.23 82.764-166.02 74.019-20.96-4.383-39.94-15.385-58.53-30.787-18.61-15.416-36.67-35.1-55.83-56.681-2.86-3.228-5.75-6.498-8.67-9.8-36.01-40.74-76.44-86.471-131.08-120.794-59.211-37.191-134.998-60.934-239.843-51.019z" fill="url(#paint16_linear)" stroke="url(#paint17_linear)" stroke-width="5"/><defs><linearGradient id="paint0_linear" x1="1399.49" y1="643.931" x2="187.361" y2="955.616" gradientUnits="userSpaceOnUse"><stop stop-color="#F5F6F7"/><stop offset=".965" stop-color="#B3F1FF"/></linearGradient><linearGradient id="paint1_linear" x1="46.678" y1="782.397" x2="1295.58" y2="-162.79" gradientUnits="userSpaceOnUse"><stop stop-color="#103783"/><stop offset="1" stop-color="#9BAFD9"/></linearGradient><linearGradient id="paint2_linear" x1="1411.85" y1="651.772" x2="186.701" y2="944.79" gradientUnits="userSpaceOnUse"><stop stop-color="#F5F6F7"/><stop offset=".965" stop-color="#B3F1FF"/></linearGradient><linearGradient id="paint3_linear" x1="47.737" y1="766.665" x2="1320.98" y2="-162.444" gradientUnits="userSpaceOnUse"><stop stop-color="#103783"/><stop offset="1" stop-color="#9BAFD9"/></linearGradient><linearGradient id="paint4_linear" x1="1424.05" y1="660.021" x2="186.171" y2="934.012" gradientUnits="userSpaceOnUse"><stop stop-color="#F5F6F7"/><stop offset=".965" stop-color="#B3F1FF"/></linearGradient><linearGradient id="paint5_linear" x1="49.053" y1="750.989" x2="1346.45" y2="-161.477" gradientUnits="userSpaceOnUse"><stop stop-color="#103783"/><stop offset="1" stop-color="#9BAFD9"/></linearGradient><linearGradient id="paint6_linear" x1="1436.09" y1="668.677" x2="185.769" y2="923.282" gradientUnits="userSpaceOnUse"><stop stop-color="#F5F6F7"/><stop offset=".965" stop-color="#B3F1FF"/></linearGradient><linearGradient id="paint7_linear" x1="50.627" y1="735.375" x2="1371.98" y2="-159.886" gradientUnits="userSpaceOnUse"><stop stop-color="#103783"/><stop offset="1" stop-color="#9BAFD9"/></linearGradient><linearGradient id="paint8_linear" x1="1447.96" y1="677.739" x2="185.496" y2="912.606" gradientUnits="userSpaceOnUse"><stop stop-color="#F5F6F7"/><stop offset=".965" stop-color="#B3F1FF"/></linearGradient><linearGradient id="paint9_linear" x1="52.458" y1="719.83" x2="1397.56" y2="-157.667" gradientUnits="userSpaceOnUse"><stop stop-color="#103783"/><stop offset="1" stop-color="#9BAFD9"/></linearGradient><linearGradient id="paint10_linear" x1="1459.64" y1="687.205" x2="185.352" y2="901.984" gradientUnits="userSpaceOnUse"><stop stop-color="#F5F6F7"/><stop offset=".965" stop-color="#B3F1FF"/></linearGradient><linearGradient id="paint11_linear" x1="54.545" y1="704.358" x2="1423.18" y2="-154.816" gradientUnits="userSpaceOnUse"><stop stop-color="#103783"/><stop offset="1" stop-color="#9BAFD9"/></linearGradient><linearGradient id="paint12_linear" x1="1471.13" y1="697.072" x2="185.335" y2="891.421" gradientUnits="userSpaceOnUse"><stop stop-color="#F5F6F7"/><stop offset=".965" stop-color="#B3F1FF"/></linearGradient><linearGradient id="paint13_linear" x1="56.888" y1="688.966" x2="1448.82" y2="-151.331" gradientUnits="userSpaceOnUse"><stop stop-color="#103783"/><stop offset="1" stop-color="#9BAFD9"/></linearGradient><linearGradient id="paint14_linear" x1="1482.42" y1="707.338" x2="185.445" y2="880.918" gradientUnits="userSpaceOnUse"><stop stop-color="#F5F6F7"/><stop offset=".965" stop-color="#B3F1FF"/></linearGradient><linearGradient id="paint15_linear" x1="59.487" y1="673.659" x2="1474.48" y2="-147.206" gradientUnits="userSpaceOnUse"><stop stop-color="#103783"/><stop offset="1" stop-color="#9BAFD9"/></linearGradient><linearGradient id="paint16_linear" x1="1493.5" y1="718.001" x2="185.682" y2="870.48" gradientUnits="userSpaceOnUse"><stop stop-color="#F5F6F7"/><stop offset=".965" stop-color="#B3F1FF"/></linearGradient><linearGradient id="paint17_linear" x1="62.34" y1="658.443" x2="1500.13" y2="-142.441" gradientUnits="userSpaceOnUse"><stop stop-color="#103783"/><stop offset="1" stop-color="#9BAFD9"/></linearGradient></defs></svg>