<svg width="313" height="345" fill="none" xmlns="http://www.w3.org/2000/svg"><path d="M121.719 23.041c13.315-30.26 56.247-30.26 69.562 0L309.28 291.195c11.051 25.114-7.343 53.305-34.782 53.305H38.502c-27.439 0-45.833-28.191-34.782-53.305L121.72 23.041z" fill="#C4C4C4"/><path d="M121.719 23.041c13.315-30.26 56.247-30.26 69.562 0L309.28 291.195c11.051 25.114-7.343 53.305-34.782 53.305H38.502c-27.439 0-45.833-28.191-34.782-53.305L121.72 23.041z" fill="url(#paint0_linear)"/><path d="M121.719 23.041c13.315-30.26 56.247-30.26 69.562 0L309.28 291.195c11.051 25.114-7.343 53.305-34.782 53.305H38.502c-27.439 0-45.833-28.191-34.782-53.305L121.72 23.041z" fill="url(#paint1_linear)"/><path d="M121.719 23.041c13.315-30.26 56.247-30.26 69.562 0L309.28 291.195c11.051 25.114-7.343 53.305-34.782 53.305H38.502c-27.439 0-45.833-28.191-34.782-53.305L121.72 23.041z" fill="url(#paint2_linear)"/><defs><linearGradient id="paint0_linear" x1="-27.525" y1="340.266" x2="133.443" y2="-33.008" gradientUnits="userSpaceOnUse"><stop stop-color="#F5F6F7"/><stop offset=".965" stop-color="#B3F1FF"/></linearGradient><linearGradient id="paint1_linear" x1="156.5" y1="-36.044" x2="156.5" y2="462.877" gradientUnits="userSpaceOnUse"><stop offset=".006" stop-color="#819EDA"/><stop offset=".948" stop-color="#1F1F47"/></linearGradient><linearGradient id="paint2_linear" x1="143.721" y1="321.483" x2="145.291" y2="8.206" gradientUnits="userSpaceOnUse"><stop offset=".006" stop-color="#819EDA"/><stop offset=".948" stop-color="#1F1F47"/></linearGradient></defs></svg>