<svg width="371" height="419" viewBox="0 0 371 419" fill="none" xmlns="http://www.w3.org/2000/svg">
<path d="M150.477 24.2016C163.53 -6.80773 207.47 -6.80776 220.523 24.2015L367.247 372.757C377.79 397.804 359.399 425.5 332.223 425.5H38.7764C11.6011 425.5 -6.79029 397.804 3.75305 372.757L150.477 24.2016Z" fill="#C4C4C4"/>
<path d="M150.477 24.2016C163.53 -6.80773 207.47 -6.80776 220.523 24.2015L367.247 372.757C377.79 397.804 359.399 425.5 332.223 425.5H38.7764C11.6011 425.5 -6.79029 397.804 3.75305 372.757L150.477 24.2016Z" fill="url(#paint0_linear)"/>
<path d="M150.477 24.2016C163.53 -6.80773 207.47 -6.80776 220.523 24.2015L367.247 372.757C377.79 397.804 359.399 425.5 332.223 425.5H38.7764C11.6011 425.5 -6.79029 397.804 3.75305 372.757L150.477 24.2016Z" fill="url(#paint1_linear)"/>
<path d="M150.477 24.2016C163.53 -6.80773 207.47 -6.80776 220.523 24.2015L367.247 372.757C377.79 397.804 359.399 425.5 332.223 425.5H38.7764C11.6011 425.5 -6.79029 397.804 3.75305 372.757L150.477 24.2016Z" fill="url(#paint2_linear)"/>
<defs>
<linearGradient id="paint0_linear" x1="-27.4629" y1="420.377" x2="173.18" y2="-24.7112" gradientUnits="userSpaceOnUse">
<stop stop-color="#F5F6F7"/>
<stop offset="0.965162" stop-color="#B3F1FF"/>
</linearGradient>
<linearGradient id="paint1_linear" x1="185.5" y1="-34.8582" x2="185.5" y2="568.705" gradientUnits="userSpaceOnUse">
<stop offset="0.00590686" stop-color="#819EDA"/>
<stop offset="0.947917" stop-color="#1F1F47"/>
</linearGradient>
<linearGradient id="paint2_linear" x1="170.712" y1="397.655" x2="172.697" y2="18.6729" gradientUnits="userSpaceOnUse">
<stop offset="0.00590686" stop-color="#819EDA"/>
<stop offset="0.947917" stop-color="#1F1F47"/>
</linearGradient>
</defs>
</svg>
