<svg width="269" height="601" fill="none" xmlns="http://www.w3.org/2000/svg"><path d="M43.879 28.226c10.287-37.143 62.955-37.143 73.242 0l149.664 540.381c6.705 24.207-11.503 48.143-36.621 48.143H-69.164c-25.118 0-43.326-23.936-36.621-48.143L43.879 28.227z" fill="#C4C4C4"/><path d="M43.879 28.226c10.287-37.143 62.955-37.143 73.242 0l149.664 540.381c6.705 24.207-11.503 48.143-36.621 48.143H-69.164c-25.118 0-43.326-23.936-36.621-48.143L43.879 28.227z" fill="url(#paint0_linear)"/><path d="M43.879 28.226c10.287-37.143 62.955-37.143 73.242 0l149.664 540.381c6.705 24.207-11.503 48.143-36.621 48.143H-69.164c-25.118 0-43.326-23.936-36.621-48.143L43.879 28.227z" fill="url(#paint1_linear)"/><path d="M43.879 28.226c10.287-37.143 62.955-37.143 73.242 0l149.664 540.381c6.705 24.207-11.503 48.143-36.621 48.143H-69.164c-25.118 0-43.326-23.936-36.621-48.143L43.879 28.227z" fill="url(#paint2_linear)"/><defs><linearGradient id="paint0_linear" x1="-127.941" y1="609.13" x2="243.523" y2="66.967" gradientUnits="userSpaceOnUse"><stop stop-color="#F5F6F7"/><stop offset=".965" stop-color="#B3F1FF"/></linearGradient><linearGradient id="paint1_linear" x1="80.5" y1="-68.086" x2="80.5" y2="829.784" gradientUnits="userSpaceOnUse"><stop offset=".006" stop-color="#819EDA"/><stop offset=".948" stop-color="#1F1F47"/></linearGradient><linearGradient id="paint2_linear" x1="66.026" y1="575.328" x2="70.515" y2="11.568" gradientUnits="userSpaceOnUse"><stop offset=".006" stop-color="#819EDA"/><stop offset=".948" stop-color="#1F1F47"/></linearGradient></defs></svg>