<svg width="269" height="601" viewBox="0 0 269 601" fill="none" xmlns="http://www.w3.org/2000/svg">
<path d="M43.8786 28.2263C54.1658 -8.91682 106.834 -8.91678 117.121 28.2263L266.785 568.607C273.49 592.814 255.282 616.75 230.164 616.75H-69.1638C-94.2821 616.75 -112.49 592.814 -105.785 568.607L43.8786 28.2263Z" fill="#C4C4C4"/>
<path d="M43.8786 28.2263C54.1658 -8.91682 106.834 -8.91678 117.121 28.2263L266.785 568.607C273.49 592.814 255.282 616.75 230.164 616.75H-69.1638C-94.2821 616.75 -112.49 592.814 -105.785 568.607L43.8786 28.2263Z" fill="url(#paint0_linear)"/>
<path d="M43.8786 28.2263C54.1658 -8.91682 106.834 -8.91678 117.121 28.2263L266.785 568.607C273.49 592.814 255.282 616.75 230.164 616.75H-69.1638C-94.2821 616.75 -112.49 592.814 -105.785 568.607L43.8786 28.2263Z" fill="url(#paint1_linear)"/>
<path d="M43.8786 28.2263C54.1658 -8.91682 106.834 -8.91678 117.121 28.2263L266.785 568.607C273.49 592.814 255.282 616.75 230.164 616.75H-69.1638C-94.2821 616.75 -112.49 592.814 -105.785 568.607L43.8786 28.2263Z" fill="url(#paint2_linear)"/>
<defs>
<linearGradient id="paint0_linear" x1="-127.941" y1="609.13" x2="243.523" y2="66.9667" gradientUnits="userSpaceOnUse">
<stop stop-color="#F5F6F7"/>
<stop offset="0.965162" stop-color="#B3F1FF"/>
</linearGradient>
<linearGradient id="paint1_linear" x1="80.5" y1="-68.0863" x2="80.5" y2="829.784" gradientUnits="userSpaceOnUse">
<stop offset="0.00590686" stop-color="#819EDA"/>
<stop offset="0.947917" stop-color="#1F1F47"/>
</linearGradient>
<linearGradient id="paint2_linear" x1="66.0259" y1="575.328" x2="70.5151" y2="11.5677" gradientUnits="userSpaceOnUse">
<stop offset="0.00590686" stop-color="#819EDA"/>
<stop offset="0.947917" stop-color="#1F1F47"/>
</linearGradient>
</defs>
</svg>
