<svg width="371" height="419" fill="none" xmlns="http://www.w3.org/2000/svg"><path d="M150.477 24.202c13.053-31.01 56.993-31.01 70.046 0l146.724 348.555c10.543 25.047-7.848 52.743-35.024 52.743H38.776c-27.175 0-45.566-27.696-35.023-52.743L150.477 24.202z" fill="#C4C4C4"/><path d="M150.477 24.202c13.053-31.01 56.993-31.01 70.046 0l146.724 348.555c10.543 25.047-7.848 52.743-35.024 52.743H38.776c-27.175 0-45.566-27.696-35.023-52.743L150.477 24.202z" fill="url(#paint0_linear)"/><path d="M150.477 24.202c13.053-31.01 56.993-31.01 70.046 0l146.724 348.555c10.543 25.047-7.848 52.743-35.024 52.743H38.776c-27.175 0-45.566-27.696-35.023-52.743L150.477 24.202z" fill="url(#paint1_linear)"/><path d="M150.477 24.202c13.053-31.01 56.993-31.01 70.046 0l146.724 348.555c10.543 25.047-7.848 52.743-35.024 52.743H38.776c-27.175 0-45.566-27.696-35.023-52.743L150.477 24.202z" fill="url(#paint2_linear)"/><defs><linearGradient id="paint0_linear" x1="-27.463" y1="420.377" x2="173.18" y2="-24.711" gradientUnits="userSpaceOnUse"><stop stop-color="#F5F6F7"/><stop offset=".965" stop-color="#B3F1FF"/></linearGradient><linearGradient id="paint1_linear" x1="185.5" y1="-34.858" x2="185.5" y2="568.705" gradientUnits="userSpaceOnUse"><stop offset=".006" stop-color="#819EDA"/><stop offset=".948" stop-color="#1F1F47"/></linearGradient><linearGradient id="paint2_linear" x1="170.712" y1="397.655" x2="172.697" y2="18.673" gradientUnits="userSpaceOnUse"><stop offset=".006" stop-color="#819EDA"/><stop offset=".948" stop-color="#1F1F47"/></linearGradient></defs></svg>