<svg width="313" height="345" viewBox="0 0 313 345" fill="none" xmlns="http://www.w3.org/2000/svg">
<path d="M121.719 23.0415C135.034 -7.21812 177.966 -7.21818 191.281 23.0415L309.28 291.195C320.331 316.309 301.937 344.5 274.498 344.5H38.5017C11.063 344.5 -7.33117 316.309 3.72028 291.195L121.719 23.0415Z" fill="#C4C4C4"/>
<path d="M121.719 23.0415C135.034 -7.21812 177.966 -7.21818 191.281 23.0415L309.28 291.195C320.331 316.309 301.937 344.5 274.498 344.5H38.5017C11.063 344.5 -7.33117 316.309 3.72028 291.195L121.719 23.0415Z" fill="url(#paint0_linear)"/>
<path d="M121.719 23.0415C135.034 -7.21812 177.966 -7.21818 191.281 23.0415L309.28 291.195C320.331 316.309 301.937 344.5 274.498 344.5H38.5017C11.063 344.5 -7.33117 316.309 3.72028 291.195L121.719 23.0415Z" fill="url(#paint1_linear)"/>
<path d="M121.719 23.0415C135.034 -7.21812 177.966 -7.21818 191.281 23.0415L309.28 291.195C320.331 316.309 301.937 344.5 274.498 344.5H38.5017C11.063 344.5 -7.33117 316.309 3.72028 291.195L121.719 23.0415Z" fill="url(#paint2_linear)"/>
<defs>
<linearGradient id="paint0_linear" x1="-27.5253" y1="340.266" x2="133.443" y2="-33.0081" gradientUnits="userSpaceOnUse">
<stop stop-color="#F5F6F7"/>
<stop offset="0.965162" stop-color="#B3F1FF"/>
</linearGradient>
<linearGradient id="paint1_linear" x1="156.5" y1="-36.0438" x2="156.5" y2="462.877" gradientUnits="userSpaceOnUse">
<stop offset="0.00590686" stop-color="#819EDA"/>
<stop offset="0.947917" stop-color="#1F1F47"/>
</linearGradient>
<linearGradient id="paint2_linear" x1="143.721" y1="321.483" x2="145.291" y2="8.20566" gradientUnits="userSpaceOnUse">
<stop offset="0.00590686" stop-color="#819EDA"/>
<stop offset="0.947917" stop-color="#1F1F47"/>
</linearGradient>
</defs>
</svg>
